<?xml version="1.0"?>
<svg xmlns="http://www.w3.org/2000/svg" height="512px" viewBox="0 0 416 416" width="512px" class=""><g><path d="m387.238281 200.871094c7.960938-10.183594 12.761719-22.96875 12.761719-36.871094 0-33.089844-26.910156-60-60-60-10.113281 0-19.632812 2.535156-28 6.976562v-50.976562c0-33.089844-26.910156-60-60-60-21.632812 0-40.574219 11.542969-51.128906 28.761719-10.183594-7.960938-22.96875-12.761719-36.871094-12.761719-33.089844 0-60 26.910156-60 60 0 10.113281 2.535156 19.632812 6.976562 28h-50.976562c-33.089844 0-60 26.910156-60 60 0 21.632812 11.542969 40.574219 28.761719 51.128906-7.960938 10.183594-12.761719 22.96875-12.761719 36.871094 0 33.089844 26.910156 60 60 60 10.113281 0 19.632812-2.535156 28-6.976562v50.976562c0 33.089844 26.910156 60 60 60 21.632812 0 40.574219-11.542969 51.128906-28.761719 10.183594 7.960938 22.96875 12.761719 36.871094 12.761719 33.089844 0 60-26.910156 60-60 0-10.113281-2.535156-19.632812-6.976562-28h50.976562c33.089844 0 60-26.910156 60-60 0-21.632812-11.542969-40.574219-28.761719-51.128906zm-47.238281-64.871094c15.441406 0 28 12.558594 28 28s-12.558594 28-28 28h-28v-28c0-15.441406 12.558594-28 28-28zm-116-76c0-15.441406 12.558594-28 28-28s28 12.558594 28 28v132h-56zm-88 16c0-15.441406 12.558594-28 28-28s28 12.558594 28 28v28h-28c-15.441406 0-28-12.558594-28-28zm-76 60h132v56h-132c-15.441406 0-28-12.558594-28-28s12.558594-28 28-28zm16 144c-15.441406 0-28-12.558594-28-28s12.558594-28 28-28h28v28c0 15.441406-12.558594 28-28 28zm116 76c0 15.441406-12.558594 28-28 28s-28-12.558594-28-28v-132h56zm88-16c0 15.441406-12.558594 28-28 28s-28-12.558594-28-28v-28h28c15.441406 0 28 12.558594 28 28zm76-60h-132v-56h132c15.441406 0 28 12.558594 28 28s-12.558594 28-28 28zm0 0" data-original="#000000" class="active-path" data-old_color="#000000" fill="#FFFFFF"/></g> </svg>
